HIERARCHY
ROOT Hips
{
	OFFSET 0.00000 0.00000 0.00000
	CHANNELS 6 Xposition Yposition Zposition Zrotation Yrotation Xrotation 
	JOINT LHipJoint
	{
		OFFSET 0 0 0
		CHANNELS 3 Zrotation Yrotation Xrotation
		JOINT LeftHip
		{
			OFFSET 1.54859 -1.61379 0.86856
			CHANNELS 3 Zrotation Yrotation Xrotation
			JOINT LeftKnee
			{
				OFFSET 2.25087 -6.18423 0.00000
				CHANNELS 3 Zrotation Yrotation Xrotation
				JOINT LeftAnkle
				{
					OFFSET 2.40328 -6.60297 0.00000
					CHANNELS 3 Zrotation Yrotation Xrotation
					JOINT LeftToe
					{
						OFFSET 0.17435 -0.47901 2.02453
						CHANNELS 3 Zrotation Yrotation Xrotation
						End Site
						{
							OFFSET 0.00000 -0.00000 1.04844
						}
					}
				}
			}
		}
	}
	JOINT RHipJoint
	{
		OFFSET 0 0 0
		CHANNELS 3 Zrotation Yrotation Xrotation
		JOINT RightHip
		{
			OFFSET -1.54669 -1.61379 0.86856
			CHANNELS 3 Zrotation Yrotation Xrotation
			JOINT RightKnee
			{
				OFFSET -2.28132 -6.26789 0.00000
				CHANNELS 3 Zrotation Yrotation Xrotation
				JOINT RightAnkle
				{
					OFFSET -2.51636 -6.91365 0.00000
					CHANNELS 3 Zrotation Yrotation Xrotation
					JOINT RightToe
					{
						OFFSET -0.15124 -0.41552 2.21090
						CHANNELS 3 Zrotation Yrotation Xrotation
						End Site
						{
							OFFSET -0.00000 -0.00000 1.13399
						}
					}
				}
			}
		}
	}
	JOINT lowerback
	{
		OFFSET 0 0 0
		CHANNELS 3 Zrotation Yrotation Xrotation
		JOINT Chest
		{
			OFFSET -0.04287 2.26161 -0.25690
			CHANNELS 3 Zrotation Yrotation Xrotation
			JOINT Chest2
			{
				OFFSET 0.02248 2.28395 -0.10140
				CHANNELS 3 Zrotation Yrotation Xrotation
				JOINT lowerneck
				{
					OFFSET 0 0 0
					CHANNELS 3 Zrotation Yrotation Xrotation
					JOINT Neck
					{
						OFFSET -0.11644 1.38496 0.11345
						CHANNELS 3 Zrotation Yrotation Xrotation
						JOINT Head
						{
							OFFSET 0.29383 1.36600 0.06642
							CHANNELS 3 Zrotation Yrotation Xrotation
							End Site
							{
								OFFSET 0.11075 1.41395 -0.00294
							}
						}
					}
				}
				JOINT LeftCollar
				{
					OFFSET 0 0 0
					CHANNELS 3 Zrotation Yrotation Xrotation
					JOINT LeftShoulder
					{
						OFFSET 3.51628 0.59542 -0.30346
CHANNELS 3 Zrotation Xrotation Yrotation
						JOINT LeftElbow
						{
OFFSET 0 -4.764050 0.000000
CHANNELS 3 Zrotation Xrotation Yrotation
							JOINT LeftWrist
							{
OFFSET 0 -3.137590 -0.000000
CHANNELS 3 Zrotation Xrotation Yrotation
								JOINT lhand
								{
									OFFSET 0 0 0
CHANNELS 3 Zrotation Xrotation Yrotation
									JOINT LFingers
									{
OFFSET 0 -0.732260 -0.000000
CHANNELS 3 Zrotation Xrotation Yrotation
										End Site
										{
OFFSET 0 -0.590370 -0.000000
										}
									}
								}
								JOINT LThumb
								{
OFFSET 0 0.000000 0.000000
CHANNELS 3 Zrotation Xrotation Yrotation
									End Site
									{
OFFSET 0 -0.599380 0.599380
									}
								}
							}
						}
					}
				}
				JOINT RightCollar
				{
					OFFSET 0 0 0
					CHANNELS 3 Zrotation Yrotation Xrotation
					JOINT RightShoulder
					{
						OFFSET -3.30990 0.84213 -0.36430
CHANNELS 3 Zrotation Xrotation Yrotation
						JOINT RightElbow
						{
OFFSET 0 -5.101610 -0.000000
CHANNELS 3 Zrotation Xrotation Yrotation
							JOINT RightWrist
							{
OFFSET 0 -3.232670 -0.000000
CHANNELS 3 Zrotation Xrotation Yrotation
								JOINT rhand
								{
									OFFSET 0 0 0
CHANNELS 3 Zrotation Xrotation Yrotation
									JOINT RFingers
									{
OFFSET 0 -0.702000 -0.000000
CHANNELS 3 Zrotation Xrotation Yrotation
										End Site
										{
OFFSET 0 -0.565970 -0.000000
										}
									}
								}
								JOINT RThumb
								{
OFFSET 0 0.000000 0.000000
CHANNELS 3 Zrotation Xrotation Yrotation
									End Site
									{
OFFSET 0 -0.574610 0.574610
									}
								}
							}
						}
					}
				}
			}
		}
	}
}
MOTION
Frames: 4
Frame Time: 0.008333333333333333
-24.320700 14.779200 13.800000 -111.330000 86.560100 -100.440000 0.000000 0.000000 0.000000 -13.333800 0.670000 -55.122000 27.393700 18.635400 112.101700 -0.023100 4.501400 -5.477900 0.184400 -2.766100 -7.628300 0.000000 0.000000 0.000000 22.234000 -4.187000 -7.119600 -5.525200 -13.951900 43.045200 -2.098200 0.365400 -27.322700 -5.096500 13.491700 -41.238000 -3.890000 3.632300 16.090400 2.579900 4.743600 7.935000 4.099000 2.417000 -1.063100 -6.114900 -3.142500 -12.764600 9.326600 -1.665900 -16.569500 3.855800 -0.265600 -2.720100 0.000000 0.000000 0.000000 8.074000 52.040800 -69.033700 23.432500 -34.558400 7.382200 -0.741000 -14.932600 -27.709100 0.000000 0.000000 0.000000 -7.125000 0.000000 0.000000 -32.577000 54.535500 8.293900 0.000000 0.000000 0.000000 -24.869800 -41.210700 25.250900 -97.952700 -59.759700 -66.881700 -38.942900 -11.002300 -26.461900 0.000000 0.000000 0.000000 7.125000 0.000000 -0.000000 -5.239800 -2.516900 -5.487500
-24.203937 14.791820 13.768905 -110.966053 86.611968 -100.068474 0.000000 0.000000 0.000000 -13.355926 0.312595 -55.484409 27.149259 18.719882 111.345955 -0.029901 4.693306 -5.516908 0.241753 -3.088500 -8.531922 0.000000 0.000000 0.000000 21.929204 -4.501247 -6.412295 -5.359182 -13.766943 42.331835 -2.028172 1.205368 -26.653346 -5.022024 13.406402 -40.913357 -3.946130 3.769151 16.007901 2.567318 4.919847 7.980567 4.092737 2.502075 -0.992256 -6.454923 -3.333072 -12.703745 9.685414 -1.842184 -16.692601 4.024765 -0.340502 -2.735277 0.000000 0.000000 0.000000 8.465243 52.174445 -69.192176 23.841495 -34.983165 7.620952 -0.856003 -15.149430 -27.218106 0.000000 0.000000 0.000000 -7.125000 0.000000 0.000000 -32.337822 54.097300 7.870025 0.000000 0.000000 0.000000 -25.151395 -41.073942 24.575597 -96.631096 -59.803766 -65.738178 -38.033237 -8.251501 -26.881754 0.000000 0.000000 0.000000 7.125000 0.000000 0.000000 -4.627299 -2.696112 -4.850427
-24.087174 14.804439 13.737810 -110.602107 86.663836 -99.696949 0.000000 0.000000 0.000000 -13.378052 -0.044810 -55.846817 26.904818 18.804365 110.590210 -0.036702 4.885212 -5.555915 0.299106 -3.410901 -9.435543 0.000000 0.000000 0.000000 21.624408 -4.815493 -5.704989 -5.193164 -13.581986 41.618470 -1.958144 2.045336 -25.983992 -4.947549 13.321105 -40.588715 -4.002260 3.906001 15.925401 2.554735 5.096094 8.026135 4.086473 2.587151 -0.921413 -6.794946 -3.523643 -12.642889 10.044227 -2.018469 -16.815701 4.193729 -0.415404 -2.750454 0.000000 0.000000 0.000000 8.856485 52.308089 -69.350652 24.250490 -35.407930 7.859704 -0.971005 -15.366260 -26.727111 0.000000 0.000000 0.000000 -7.125000 0.000000 0.000000 -32.098644 53.659100 7.446149 0.000000 0.000000 0.000000 -25.432991 -40.937184 23.900295 -95.309492 -59.847833 -64.594655 -37.123575 -5.500703 -27.301609 0.000000 0.000000 0.000000 7.125000 0.000000 0.000000 -4.014797 -2.875324 -4.213353
-23.970411 14.817059 13.706716 -110.238160 86.715704 -99.325423 0.000000 0.000000 0.000000 -13.400178 -0.402216 -56.209226 26.660377 18.888847 109.834465 -0.043503 5.077118 -5.594923 0.356459 -3.733301 -10.339165 0.000000 0.000000 0.000000 21.319612 -5.129740 -4.997684 -5.027145 -13.397030 40.905105 -1.888115 2.885304 -25.314638 -4.873073 13.235807 -40.264072 -4.058390 4.042852 15.842902 2.542153 5.272342 8.071702 4.080210 2.672226 -0.850569 -7.134970 -3.714215 -12.582034 10.403041 -2.194753 -16.938802 4.362694 -0.490306 -2.765630 0.000000 0.000000 0.000000 9.247728 52.441734 -69.509128 24.659485 -35.832695 8.098456 -1.086008 -15.583090 -26.236117 0.000000 0.000000 0.000000 -7.125000 0.000000 0.000000 -31.859466 53.220901 7.022274 0.000000 0.000000 0.000000 -25.714586 -40.800426 23.224992 -93.987887 -59.891899 -63.451133 -36.213912 -2.749904 -27.721463 0.000000 0.000000 0.000000 7.125000 0.000000 0.000000 -3.402296 -3.054537 -3.576280
